<?xml version="1.0" encoding="UTF-8" standalone="no"?>
<svg
   xmlns:dc="http://purl.org/dc/elements/1.1/"
   xmlns:cc="http://creativecommons.org/ns#"
   xmlns:rdf="http://www.w3.org/1999/02/22-rdf-syntax-ns#"
   xmlns:svg="http://www.w3.org/2000/svg"
   xmlns="http://www.w3.org/2000/svg"
   xmlns:sodipodi="http://sodipodi.sourceforge.net/DTD/sodipodi-0.dtd"
   xmlns:inkscape="http://www.inkscape.org/namespaces/inkscape"
   version="1.1"
   width="300"
   height="300"
   id="svg921"
   sodipodi:docname="logo.svg"
   inkscape:version="1.0.1 (c497b03c, 2020-09-10)"
   inkscape:export-filename="/Users/jin_igarashi/Documents/git/watergis/logo/logo.png"
   inkscape:export-xdpi="96"
   inkscape:export-ydpi="96">
  <metadata
     id="metadata927">
    <rdf:RDF>
      <cc:Work
         rdf:about="">
        <dc:format>image/svg+xml</dc:format>
        <dc:type
           rdf:resource="http://purl.org/dc/dcmitype/StillImage" />
      </cc:Work>
    </rdf:RDF>
  </metadata>
  <defs
     id="defs925">
    <filter
       inkscape:collect="always"
       style="color-interpolation-filters:sRGB"
       id="filter1706"
       x="-0.0019185608"
       width="1.0038371"
       y="-0.0019214415"
       height="1.0038429">
      <feGaussianBlur
         inkscape:collect="always"
         stdDeviation="0.2398201"
         id="feGaussianBlur1708" />
    </filter>
  </defs>
  <sodipodi:namedview
     pagecolor="#ffffff"
     bordercolor="#666666"
     borderopacity="1"
     objecttolerance="10"
     gridtolerance="10"
     guidetolerance="10"
     inkscape:pageopacity="0"
     inkscape:pageshadow="2"
     inkscape:window-width="1822"
     inkscape:window-height="847"
     id="namedview923"
     showgrid="false"
     inkscape:zoom="2.2233333"
     inkscape:cx="153.14843"
     inkscape:cy="82.983507"
     inkscape:window-x="30"
     inkscape:window-y="89"
     inkscape:window-maximized="0"
     inkscape:current-layer="svg921"
     inkscape:document-rotation="0" />
  <path
     id="rect1492"
     style="fill:#ffffff;fill-opacity:1;stroke:#0000ff;stroke-width:2.07404;stroke-miterlimit:4;stroke-dasharray:none;stroke-opacity:1;filter:url(#filter1706)"
     transform="matrix(0.99718368,0,0,0.99717925,-0.02479348,2.6688167)"
     d="M 43.359148,-0.89954489 H 258.43995 c 23.52262,0 42.4596,18.93698089 42.4596,42.45959889 V 256.19109 c 0,23.52262 -18.93698,42.4596 -42.4596,42.4596 H 43.359148 c -23.522618,0 -42.45959875,-18.93698 -42.45959875,-42.4596 V 41.560054 c 0,-23.522618 18.93698075,-42.45959889 42.45959875,-42.45959889 z"
     inkscape:export-xdpi="92.228867"
     inkscape:export-ydpi="92.228867" />
  <g
     data-paper-data="{&quot;description&quot;:&quot;Logo for GIS for Water\n======================\n\nThis logo was generated by MarkMaker and is composed of elements designed by others.\n\nThe font is Wendy One designed by Alejandro Inler and released under the OFL license via Google Fonts: https://www.google.com/fonts/specimen/Wendy One. The font includes this copyright statement: Copyright (c) 2012, Alejandro Inler (alejandroinler@gmail.com), with Reserved Font Name 'Wendy'\n\nMarkMaker uses semantic data from the Princeton University WordNet database http://wordnet.princeton.edu and font descriptions from Google Fonts https://www.google.com/fonts.\n\nThis design is inspired by designs that past users of MarkMaker have liked. As a result, it may be visually similar to past or future designs generated by the system. There is no guarantee that it is unique, original, or suitable in any way for use as a logo.\n\n&quot;}"
     fill="#4810cb"
     fill-rule="nonzero"
     stroke="#ade7e4"
     stroke-width="1.68144"
     stroke-linecap="butt"
     stroke-linejoin="miter"
     stroke-miterlimit="10"
     stroke-dasharray="none"
     stroke-dashoffset="0"
     font-family="none"
     font-weight="none"
     font-size="none"
     text-anchor="none"
     style="mix-blend-mode:normal"
     id="g919"
     transform="translate(3.0360387,-1.5742075)">
    <g
       data-paper-data="{&quot;elementType&quot;:&quot;logo&quot;}"
       id="g917">
      <g
         data-paper-data="{&quot;elementType&quot;:&quot;text&quot;}"
         id="g915">
        <g
           data-paper-data="{&quot;baseline&quot;:62,&quot;elementType&quot;:&quot;row&quot;}"
           id="g889">
          <g
             data-paper-data="{&quot;baselineProportion&quot;:0.9841269841269841,&quot;fontSize&quot;:100,&quot;baseline&quot;:62,&quot;elementType&quot;:&quot;word&quot;}"
             id="g887">
            <path
               d="m 199.25663,79.48721 v 18.22883 c -0.67227,0.67227 -1.80995,1.47382 -3.41306,2.40465 -1.6031,0.93083 -3.20621,1.70653 -4.80931,2.32708 -4.18875,1.75824 -8.84292,2.63736 -13.96251,2.63736 -8.53264,0 -14.98384,-2.08145 -19.35359,-6.24434 -4.36975,-4.1629 -6.55462,-10.20039 -6.55462,-18.11248 0,-7.91209 2.23659,-13.97544 6.70976,-18.19005 4.47317,-4.21461 10.69166,-6.32191 18.65546,-6.32191 6.20556,0 11.86813,1.29282 16.98772,3.87847 1.1894,0.56884 2.06852,1.06012 2.63736,1.47382 l 0.77569,0.62056 -3.41306,6.90368 c -2.43051,-1.03426 -5.32644,-1.55139 -8.68778,-1.55139 -8.58436,0 -12.87654,4.44732 -12.87654,13.34195 0,4.60246 0.98255,8.19651 2.94764,10.78216 1.96509,2.58565 4.55074,3.87847 7.75695,3.87847 1.29282,0 2.55979,-0.25856 3.8009,-0.77569 l -1.7841,-7.44667 h -5.74014 l 1.55139,-7.83452 z"
               data-paper-data="{&quot;elementType&quot;:&quot;letter&quot;,&quot;baseline&quot;:62,&quot;baselineProportion&quot;:0.9841269841269841,&quot;fontSize&quot;:100}"
               id="path881" />
            <path
               d="m 207.40142,104.30945 -4.65417,-47.00711 h 24.43439 l -4.65417,47.00711 z"
               data-paper-data="{&quot;elementType&quot;:&quot;letter&quot;,&quot;baseline&quot;:60.6,&quot;baselineProportion&quot;:1,&quot;fontSize&quot;:100}"
               id="path883" />
            <path
               d="m 263.98836,77.04377 c 0,0 0.42017,0.26503 1.2605,0.79509 0.84034,0.53006 1.84228,1.75178 3.00582,3.66516 1.16354,1.91338 1.74531,4.46025 1.74531,7.64059 0,3.18035 -1.0084,6.06335 -3.02521,8.649 -3.72334,4.86102 -9.38591,7.29153 -16.98772,7.29153 -3.30963,0 -6.58048,-0.47835 -9.81254,-1.43504 -3.23206,-0.95669 -5.62379,-1.92631 -7.17518,-2.90886 l -2.32708,-1.39625 3.33549,-6.67098 c 3.72334,1.80995 7.08468,2.71493 10.08403,2.71493 2.99935,0 4.49903,-0.95669 4.49903,-2.87007 0,-1.08597 -0.58177,-2.1073 -1.74531,-3.06399 -1.16354,-0.95669 -2.58565,-1.8746 -4.26632,-2.75372 -1.68067,-0.87912 -3.36134,-1.90045 -5.04202,-3.06399 -1.68067,-1.16354 -3.10278,-2.7925 -4.26632,-4.88688 -1.16354,-2.09438 -1.74531,-4.53782 -1.74531,-7.33032 0,-4.96445 1.90045,-8.7395 5.70136,-11.32515 3.8009,-2.58565 8.39043,-3.87847 13.76858,-3.87847 3.20621,0 6.21849,0.38785 9.03685,1.16354 2.81836,0.77569 4.82224,1.55139 6.01164,2.32708 l 1.86167,1.16354 -3.02521,6.59341 c -2.63736,-1.13769 -5.28765,-1.70653 -7.95087,-1.70653 -2.66322,0 -3.99483,1.0084 -3.99483,3.02521 0,1.08597 0.58177,2.06852 1.74531,2.94764 1.16354,0.87912 2.58565,1.71946 4.26632,2.52101 1.68067,0.80155 3.36134,1.73239 5.04202,2.7925 z"
               data-paper-data="{&quot;elementType&quot;:&quot;letter&quot;,&quot;baseline&quot;:62,&quot;baselineProportion&quot;:0.9841269841269841,&quot;fontSize&quot;:100}"
               id="path885" />
          </g>
        </g>
        <g
           data-paper-data="{&quot;baseline&quot;:66.3,&quot;elementType&quot;:&quot;row&quot;}"
           id="g899">
          <g
             data-paper-data="{&quot;baselineProportion&quot;:0.9851411589895989,&quot;fontSize&quot;:100,&quot;baseline&quot;:66.3,&quot;elementType&quot;:&quot;word&quot;}"
             id="g897">
            <path
               d="m 165.82418,136.89076 c 0,-4.7576 1.12476,-8.39043 3.37427,-10.89851 2.24952,-2.50808 6.06335,-3.76212 11.4415,-3.76212 2.3788,0 4.65417,0.33613 6.82612,1.0084 l 0.85326,7.52424 c -0.77569,-0.20685 -1.55139,-0.31028 -2.32708,-0.31028 -2.53394,0 -3.8009,1.80995 -3.8009,5.42986 v 1.0084 h 4.73174 l 0.93083,10.08403 h -5.19716 l -1.16354,26.6839 h -14.27279 l -1.16354,-26.6839 h -4.88688 l 0.93083,-10.08403 z"
               data-paper-data="{&quot;elementType&quot;:&quot;letter&quot;,&quot;baseline&quot;:66.3,&quot;baselineProportion&quot;:1,&quot;fontSize&quot;:100}"
               id="path891" />
            <path
               d="m 197.43374,169.819 c 0,0 -0.9373,-0.76923 -2.81189,-2.30769 -1.8746,-1.53846 -2.81189,-5.66904 -2.81189,-12.39173 0,-6.72269 1.8746,-11.6225 5.62379,-14.69942 3.74919,-3.07692 8.75242,-4.61538 15.0097,-4.61538 6.25727,0 11.2605,1.53846 15.0097,4.61538 3.74919,3.07692 5.62379,7.97673 5.62379,14.69942 0,6.72269 -1.8746,11.6225 -5.62379,14.69942 -3.74919,3.07692 -8.75242,4.61538 -15.0097,4.61538 -6.25727,0 -11.2605,-1.53846 -15.0097,-4.61538 m 11.75177,-23.50355 c 0,0 -0.15514,0.44602 -0.46542,1.33807 -0.31028,0.89205 -0.46542,3.38074 -0.46542,7.46606 0,4.08533 0.31028,7.02004 0.93083,8.80414 0.62056,1.7841 1.70653,2.67615 3.25792,2.67615 1.55139,0 2.63736,-0.89205 3.25792,-2.67615 0.62056,-1.7841 0.93083,-4.71881 0.93083,-8.80414 0,-4.08533 -0.31028,-7.02004 -0.93083,-8.80414 -0.62056,-1.7841 -1.70653,-2.67615 -3.25792,-2.67615 -1.55139,0 -2.63736,0.89205 -3.25792,2.67615 z"
               data-paper-data="{&quot;elementType&quot;:&quot;letter&quot;,&quot;baseline&quot;:48.800000000000004,&quot;baselineProportion&quot;:0.9799196787148594,&quot;fontSize&quot;:100}"
               id="path893" />
            <path
               d="m 254.56367,141.93277 c 2.74079,-4.08533 6.12799,-6.12799 10.1616,-6.12799 1.91338,0 3.67162,0.46542 5.27473,1.39625 l -1.86167,12.7214 c -2.06852,-1.44796 -4.3956,-2.17195 -6.98125,-2.17195 -2.48222,0 -4.1629,1.03426 -5.04202,3.10278 -0.51713,1.29282 -0.85326,2.53394 -1.0084,3.72334 l -1.47382,19.08209 h -13.96251 l -2.32708,-36.76794 h 15.28119 z"
               data-paper-data="{&quot;elementType&quot;:&quot;letter&quot;,&quot;baseline&quot;:48.800000000000004,&quot;baselineProportion&quot;:1,&quot;fontSize&quot;:100}"
               id="path895" />
          </g>
        </g>
        <g
           data-paper-data="{&quot;baseline&quot;:62,&quot;elementType&quot;:&quot;row&quot;}"
           id="g913">
          <g
             data-paper-data="{&quot;baselineProportion&quot;:0.9841269841269841,&quot;fontSize&quot;:100,&quot;baseline&quot;:62,&quot;elementType&quot;:&quot;word&quot;}"
             id="g911">
            <path
               d="m 97.71816,196.00083 h 14.04008 c 0,6.10213 -0.60763,11.89399 -1.82288,17.37557 -1.21526,5.48158 -2.68908,9.95475 -4.42146,13.41952 -1.73239,3.46477 -3.4777,6.47705 -5.23594,9.03685 -1.75824,2.55979 -3.25792,4.38268 -4.49903,5.46865 l -1.7841,1.70653 H 76.38656 l -5.81771,-18.84939 c -0.72398,2.43051 -1.84874,5.21008 -3.37427,8.33872 -1.52553,3.12864 -2.883,5.64964 -4.0724,7.56303 l -1.7841,2.94764 H 44.5055 L 30.00001,196.00084 h 24.58953 l 4.42146,30.56238 c 0.77569,-0.77569 1.74531,-2.18487 2.90886,-4.22754 1.16354,-2.04266 2.14609,-4.13704 2.94764,-6.28313 0.80155,-2.14609 1.55139,-5.01616 2.24952,-8.61021 0.69813,-3.59405 1.07304,-7.40789 1.12476,-11.4415 h 16.67744 l 4.42146,30.56238 c 3.61991,-4.55074 6.12799,-10.91144 7.52424,-19.08209 0.56884,-3.61991 0.85326,-7.44667 0.85326,-11.48028 z"
               data-paper-data="{&quot;elementType&quot;:&quot;letter&quot;,&quot;baseline&quot;:60.6,&quot;baselineProportion&quot;:1,&quot;fontSize&quot;:100}"
               id="path901" />
            <path
               d="m 129.67679,243.78364 c -3.9819,0 -7.25275,-1.16354 -9.81254,-3.49063 -2.55979,-2.32708 -3.83969,-5.62379 -3.83969,-9.89011 0,-4.26632 1.44796,-7.3691 4.34389,-9.30834 2.89593,-1.93924 6.38655,-2.90886 10.47188,-2.90886 4.08533,0 7.62767,0.64641 10.62702,1.93924 -0.67227,-4.29218 -3.3872,-6.43827 -8.1448,-6.43827 -2.17195,0 -4.86102,0.43956 -8.06723,1.31868 l -1.93924,-6.98125 c 4.65417,-1.91338 9.38591,-2.87007 14.19522,-2.87007 13.85908,0 20.78862,5.89528 20.78862,17.68584 0,4.03361 -0.46542,9.61862 -1.39625,16.75501 l -0.38785,3.41306 h -12.79897 l -0.46542,-4.26632 c -3.51648,3.36134 -8.04137,5.04202 -13.57466,5.04202 m 6.98128,-9.61862 c 2.32708,0 4.31803,-0.64641 5.97285,-1.93924 l -0.46542,-5.11959 c -1.29282,-0.87912 -2.72786,-1.31868 -4.30511,-1.31868 -1.57725,0 -2.87007,0.38785 -3.87847,1.16354 -1.0084,0.77569 -1.51261,1.73239 -1.51261,2.87007 0,1.13769 0.38785,2.14609 1.16354,3.02521 0.77569,0.87912 1.7841,1.31868 3.02521,1.31868 z"
               data-paper-data="{&quot;elementType&quot;:&quot;letter&quot;,&quot;baseline&quot;:48.800000000000004,&quot;baselineProportion&quot;:0.9799196787148594,&quot;fontSize&quot;:100}"
               id="path903" />
            <path
               d="m 183.51002,229.20057 c -0.0517,2.99935 1.0084,4.49903 3.18035,4.49903 0.62056,0 1.37039,-0.28442 2.24952,-0.85326 l 1.62896,7.52424 c -0.31028,0.25856 -0.73691,0.58177 -1.2799,0.96962 -0.54299,0.38785 -1.70653,0.89205 -3.49063,1.51261 -1.7841,0.62056 -3.63284,0.93083 -5.54622,0.93083 -3.51648,0 -6.38655,-1.20233 -8.61021,-3.60698 -2.22366,-2.40465 -3.41306,-5.46865 -3.5682,-9.19198 l -0.69813,-14.66063 h -5.97285 l 0.93083,-10.08403 h 4.65417 l -0.31028,-7.60181 18.38397,-3.72334 -0.54299,11.32515 h 4.49903 l 0.93083,10.08403 h -5.89528 z"
               data-paper-data="{&quot;elementType&quot;:&quot;letter&quot;,&quot;baseline&quot;:62,&quot;baselineProportion&quot;:0.9841269841269841,&quot;fontSize&quot;:100}"
               id="path905" />
            <path
               d="m 215.46865,243.78364 c -5.84357,0 -10.74337,-1.6936 -14.69942,-5.0808 -3.95604,-3.3872 -5.93407,-8.36458 -5.93407,-14.93213 0,-4.13704 1.0084,-7.65352 3.02521,-10.54945 3.67162,-5.37815 9.36005,-8.06723 17.06529,-8.06723 5.89528,0 10.39431,1.17647 13.49709,3.52941 3.10278,2.35294 4.65417,5.59793 4.65417,9.73497 0,3.20621 -1.2799,5.80478 -3.83969,7.79573 -2.55979,1.99095 -6.29606,2.98643 -11.20879,2.98643 -2.01681,0 -3.82676,-0.15514 -5.42986,-0.46542 l -0.85326,-0.15514 c 0.25856,1.86167 1.07304,3.24499 2.44344,4.14997 1.37039,0.90498 3.01228,1.35747 4.92566,1.35747 3.15449,0 5.84357,-0.95669 8.06723,-2.87007 l 4.80931,5.81771 c -0.82741,0.98255 -1.80995,1.90045 -2.94764,2.75372 -1.13769,0.85326 -2.94764,1.73239 -5.42986,2.63736 -2.48222,0.90498 -5.19716,1.35747 -8.1448,1.35747 m 6.28312,-26.06335 c 0,0 0,-0.25856 0,-0.77569 0,-0.51713 -0.40078,-1.11183 -1.20233,-1.7841 -0.80155,-0.67227 -1.90045,-1.0084 -3.2967,-1.0084 -1.39625,0 -2.702,0.62056 -3.91726,1.86167 -1.21526,1.24111 -1.82288,2.71493 -1.82288,4.42146 1.13769,0.51713 2.62443,0.77569 4.46025,0.77569 1.83581,0 3.25792,-0.32321 4.26632,-0.96962 1.0084,-0.64641 1.51261,-1.48675 1.51261,-2.52101 z"
               data-paper-data="{&quot;elementType&quot;:&quot;letter&quot;,&quot;baseline&quot;:48.800000000000004,&quot;baselineProportion&quot;:0.9799196787148594,&quot;fontSize&quot;:100}"
               id="path907" />
            <path
               d="m 254.56367,211.28202 c 2.74079,-4.08533 6.12799,-6.12799 10.1616,-6.12799 1.91338,0 3.67162,0.46542 5.27473,1.39625 l -1.86167,12.7214 c -2.06852,-1.44796 -4.3956,-2.17195 -6.98125,-2.17195 -2.48222,0 -4.1629,1.03426 -5.04202,3.10278 -0.51713,1.29282 -0.85326,2.53394 -1.0084,3.72334 l -1.47382,19.08209 H 239.67033 L 237.34325,206.24 h 15.28119 z"
               data-paper-data="{&quot;elementType&quot;:&quot;letter&quot;,&quot;baseline&quot;:48.800000000000004,&quot;baselineProportion&quot;:1,&quot;fontSize&quot;:100}"
               id="path909" />
          </g>
        </g>
      </g>
    </g>
  </g>
</svg>
